<svg xmlns="http://www.w3.org/2000/svg" width="10.4" height="14.4" viewBox="0 0 10.4 14.4">
  <path id="euro" d="M9.719-1.062,10,.313a.52.52,0,0,1-.078.281.332.332,0,0,1-.2.156A7.367,7.367,0,0,1,7.813,1,6.655,6.655,0,0,1,3.625-.375a6.369,6.369,0,0,1-2.312-3.5H.375a.362.362,0,0,1-.266-.109A.362.362,0,0,1,0-4.25v-.875a.362.362,0,0,1,.109-.266A.362.362,0,0,1,.375-5.5h.656a9.349,9.349,0,0,1,.031-1.312H.375a.362.362,0,0,1-.266-.109A.362.362,0,0,1,0-7.187v-.937a.362.362,0,0,1,.109-.266A.362.362,0,0,1,.375-8.5H1.406a6.54,6.54,0,0,1,2.422-3.25A6.64,6.64,0,0,1,7.813-13a8.924,8.924,0,0,1,1.625.156.382.382,0,0,1,.25.172.382.382,0,0,1,.063.3L9.375-11a.473.473,0,0,1-.187.234.314.314,0,0,1-.25.047,6.4,6.4,0,0,0-1.187-.125,4,4,0,0,0-2.219.625A3.949,3.949,0,0,0,4.063-8.5H8.375a.356.356,0,0,1,.3.141.4.4,0,0,1,.078.328l-.187.906a.419.419,0,0,1-.141.219.354.354,0,0,1-.234.094H3.594a6.891,6.891,0,0,0,0,1.313H7.781a.356.356,0,0,1,.3.141.4.4,0,0,1,.078.328l-.187.875a.347.347,0,0,1-.141.2.4.4,0,0,1-.234.078H4.031A4.221,4.221,0,0,0,5.516-1.922a3.872,3.872,0,0,0,2.328.734A5.558,5.558,0,0,0,9.25-1.375a.382.382,0,0,1,.3.063A.382.382,0,0,1,9.719-1.062Z" transform="translate(0.2 13.2)" fill="#331143" stroke="#fff" stroke-width="0.4" opacity="0.7"/>
</svg>
