<svg xmlns="http://www.w3.org/2000/svg" width="14.3" height="14.3" viewBox="0 0 14.3 14.3">
  <path id="internet" d="M12.5,11.889a7.131,7.131,0,0,0-.138-9.629h0l0,0A7.13,7.13,0,0,0,7.4.006h0L7.258,0,7.15,0,7.042,0,6.9.006h0a7.13,7.13,0,0,0-4.958,2.25l0,0h0A7.13,7.13,0,0,0,1.8,11.889s0,0,0,.007.011.009.016.015A7.134,7.134,0,0,0,6.9,14.294h0l.139,0,.108,0,.108,0,.139,0h0a7.133,7.133,0,0,0,5.085-2.388s.008-.005.011-.01S12.5,11.891,12.5,11.889ZM.5,7.4H3.459a9.112,9.112,0,0,0,.6,3.012,9.091,9.091,0,0,0-2,1.019A6.626,6.626,0,0,1,.5,7.4Zm1.69-4.679a9.069,9.069,0,0,0,1.948.957A9.1,9.1,0,0,0,3.459,6.9H.5A6.628,6.628,0,0,1,2.189,2.718ZM13.8,6.9H10.841a9.1,9.1,0,0,0-.678-3.229,9.069,9.069,0,0,0,1.948-.957A6.628,6.628,0,0,1,13.8,6.9ZM6.9,3.689a8.619,8.619,0,0,1-2.089-.316A8.626,8.626,0,0,1,6.9.652Zm0,.493V6.9H3.952a8.611,8.611,0,0,1,.657-3.076A9.11,9.11,0,0,0,6.9,4.182Zm.493,0a9.1,9.1,0,0,0,2.295-.355A8.611,8.611,0,0,1,10.349,6.9H7.4Zm0-.493V.652A8.626,8.626,0,0,1,9.485,3.373,8.619,8.619,0,0,1,7.4,3.689Zm2.566-.466A9.105,9.105,0,0,0,8.018.552a6.638,6.638,0,0,1,3.743,1.8A8.575,8.575,0,0,1,9.963,3.223Zm-5.626,0a8.568,8.568,0,0,1-1.8-.867A6.637,6.637,0,0,1,6.282.552,9.1,9.1,0,0,0,4.337,3.223ZM3.952,7.4H6.9V9.871a9.094,9.094,0,0,0-2.382.38A8.611,8.611,0,0,1,3.952,7.4ZM6.9,10.365v3.284a8.622,8.622,0,0,1-2.19-2.938A8.6,8.6,0,0,1,6.9,10.365ZM7.4,13.648V10.365a8.6,8.6,0,0,1,2.19.345A8.621,8.621,0,0,1,7.4,13.648Zm0-3.777V7.4h2.952a8.607,8.607,0,0,1-.57,2.855A9.08,9.08,0,0,0,7.4,9.871ZM10.841,7.4H13.8a6.625,6.625,0,0,1-1.555,4.031,9.091,9.091,0,0,0-2-1.019A9.105,9.105,0,0,0,10.841,7.4ZM2.389,11.8a8.593,8.593,0,0,1,1.853-.932,9.1,9.1,0,0,0,2.039,2.884A6.643,6.643,0,0,1,2.389,11.8Zm5.629,1.952a9.092,9.092,0,0,0,2.039-2.884,8.6,8.6,0,0,1,1.853.932A6.643,6.643,0,0,1,8.018,13.748Z" fill="#2d103b" opacity="0.7"/>
</svg>
