<svg id="logo_kunuz" xmlns="http://www.w3.org/2000/svg" width="76.552" height="30" viewBox="0 0 76.552 30">
  <path id="KUN" d="M0,21.338V8H3.615v5.072L7.619,8H11.7L6.915,13.974l5.117,7.364H7.879l-3.262-4.9-1,1.052v3.851ZM18.539,18.2a1.974,1.974,0,0,0,1.075-.281,2.228,2.228,0,0,0,.723-.743,3.447,3.447,0,0,0,.408-1.061,6,6,0,0,0,.129-1.259V8h3.615v6.857a9.283,9.283,0,0,1-.352,2.6,5.691,5.691,0,0,1-1.094,2.094,5.18,5.18,0,0,1-1.863,1.391,6.363,6.363,0,0,1-2.641.507,6.212,6.212,0,0,1-2.7-.535A5.185,5.185,0,0,1,14,19.478a5.8,5.8,0,0,1-1.056-2.1,9.332,9.332,0,0,1-.334-2.527V8h3.615v6.857a6.133,6.133,0,0,0,.129,1.268,3.435,3.435,0,0,0,.409,1.071,2.187,2.187,0,0,0,.713.733A1.981,1.981,0,0,0,18.539,18.2Zm11.642-3.42v6.557H26.566V8h2.817l5.284,6.781V8h3.615V21.338H35.409Z" transform="translate(0 0.275)" fill="#341244"/>
  <ellipse id="Oval-3" cx="15.003" cy="15" rx="15.003" ry="15" transform="translate(46.547)" fill="#341244"/>
  <ellipse id="Oval-3-Copy" cx="1.552" cy="1.552" rx="1.552" ry="1.552" transform="translate(40.345 18.62)" fill="#341244"/>
  <path id="UZ" d="M54.2,18.2a2.13,2.13,0,0,0,1.123-.281,2.287,2.287,0,0,0,.756-.743,3.341,3.341,0,0,0,.425-1.061,5.673,5.673,0,0,0,.136-1.259V8h3.778v6.857a8.917,8.917,0,0,1-.368,2.6,5.6,5.6,0,0,1-1.142,2.094,5.4,5.4,0,0,1-1.947,1.391,6.9,6.9,0,0,1-2.759.507,6.745,6.745,0,0,1-2.818-.535,5.4,5.4,0,0,1-1.928-1.437,5.717,5.717,0,0,1-1.1-2.1A8.944,8.944,0,0,1,48,14.857V8h3.778v6.857a5.8,5.8,0,0,0,.136,1.268,3.353,3.353,0,0,0,.425,1.071,2.243,2.243,0,0,0,.746.733A2.138,2.138,0,0,0,54.2,18.2Zm7.252.5,6.1-7.483H61.726V8h9.961v2.747L65.953,18.23H71.8v3.221H61.451Z" transform="translate(1.651 0.275)" fill="#fff"/>
</svg>
