<svg xmlns="http://www.w3.org/2000/svg" width="12.4" height="14.4" viewBox="0 0 12.4 14.4">
  <path id="ruble" d="M7.469-4H4.594v1H9.625a.362.362,0,0,1,.266.109A.362.362,0,0,1,10-2.625v1.25a.362.362,0,0,1-.109.266A.362.362,0,0,1,9.625-1H4.594V.625a.362.362,0,0,1-.109.266A.362.362,0,0,1,4.219,1H2.375A.362.362,0,0,1,2.109.891.362.362,0,0,1,2,.625V-1H.375a.362.362,0,0,1-.266-.109A.362.362,0,0,1,0-1.375v-1.25a.362.362,0,0,1,.109-.266A.362.362,0,0,1,.375-3H2V-4H.375a.362.362,0,0,1-.266-.109A.362.362,0,0,1,0-4.375V-5.781a.362.362,0,0,1,.109-.266.362.362,0,0,1,.266-.109H2v-6.469a.362.362,0,0,1,.109-.266A.362.362,0,0,1,2.375-13H7.469a4.481,4.481,0,0,1,3.266,1.234A4.315,4.315,0,0,1,12-8.531a4.42,4.42,0,0,1-1.266,3.266A4.42,4.42,0,0,1,7.469-4ZM4.594-10.844v4.688H7A2.333,2.333,0,0,0,8.75-6.8a2.356,2.356,0,0,0,.625-1.719,2.3,2.3,0,0,0-.625-1.7,2.323,2.323,0,0,0-1.719-.625Z" transform="translate(0.2 13.2)" fill="#331143" stroke="#fff" stroke-width="0.4" opacity="0.7"/>
</svg>
