<svg xmlns="http://www.w3.org/2000/svg" width="7.884" height="14" viewBox="0 0 7.884 14">
  <path id="dollar" d="M5.714-7.629a3.056,3.056,0,0,1,1.354.848,2.965,2.965,0,0,1,.738,1.408,3.01,3.01,0,0,1-.1,1.627A2.869,2.869,0,0,1,6.589-2.311a3.283,3.283,0,0,1-1.777.561V-.438a.426.426,0,0,1-.123.314A.426.426,0,0,1,4.374,0H3.5a.426.426,0,0,1-.314-.123.426.426,0,0,1-.123-.314V-1.75A3.807,3.807,0,0,1,.683-2.57.566.566,0,0,1,.519-2.9a.407.407,0,0,1,.137-.355l.93-.93a.607.607,0,0,1,.26-.109.346.346,0,0,1,.287.082,1.638,1.638,0,0,0,.93.273H4.894a.764.764,0,0,0,.561-.232.8.8,0,0,0,.232-.588.762.762,0,0,0-.164-.465.834.834,0,0,0-.41-.3L2.3-6.344A3.269,3.269,0,0,1,.737-7.328,2.942,2.942,0,0,1,0-8.969,3.1,3.1,0,0,1,.327-10.6a3.025,3.025,0,0,1,1.094-1.2,2.9,2.9,0,0,1,1.586-.451h.055v-1.312a.426.426,0,0,1,.123-.314A.426.426,0,0,1,3.5-14h.875a.426.426,0,0,1,.314.123.426.426,0,0,1,.123.314v1.312a3.7,3.7,0,0,1,2.352.82.513.513,0,0,1,.191.328.344.344,0,0,1-.137.328l-.93.957a.607.607,0,0,1-.26.109.4.4,0,0,1-.287-.055,1.533,1.533,0,0,0-.93-.3H2.979a.764.764,0,0,0-.561.232.8.8,0,0,0-.232.588.762.762,0,0,0,.164.465.834.834,0,0,0,.41.3Z" transform="translate(0.008 14)" fill="#331143" opacity="0.7"/>
</svg>
